<?xml version="1.0" encoding="UTF-8"?>
<svg width="60px" height="60px" viewBox="0 0 60 60" version="1.1" xmlns="http://www.w3.org/2000/svg" xmlns:xlink="http://www.w3.org/1999/xlink">
    <title>4安防</title>
    <defs>
        <linearGradient x1="50%" y1="0%" x2="50%" y2="100%" id="linearGradient-1">
            <stop stop-color="#FF000E" offset="0%"></stop>
            <stop stop-color="#FF5400" offset="100%"></stop>
        </linearGradient>
        <linearGradient x1="50%" y1="0%" x2="50%" y2="100%" id="linearGradient-2">
            <stop stop-color="#FFE0D9" offset="0%"></stop>
            <stop stop-color="#FDDDCE" offset="100%"></stop>
        </linearGradient>
        <rect id="path-3" x="14" y="0" width="40" height="48" rx="4"></rect>
        <filter x="-15.0%" y="-12.5%" width="130.0%" height="125.0%" filterUnits="objectBoundingBox" id="filter-4">
            <feMorphology radius="6" operator="erode" in="SourceAlpha" result="shadowSpreadInner1"></feMorphology>
            <feGaussianBlur stdDeviation="2" in="shadowSpreadInner1" result="shadowBlurInner1"></feGaussianBlur>
            <feOffset dx="0" dy="2" in="shadowBlurInner1" result="shadowOffsetInner1"></feOffset>
            <feComposite in="shadowOffsetInner1" in2="SourceAlpha" operator="arithmetic" k2="-1" k3="1" result="shadowInnerInner1"></feComposite>
            <feColorMatrix values="0 0 0 0 1   0 0 0 0 1   0 0 0 0 1  0 0 0 0.5 0" type="matrix" in="shadowInnerInner1"></feColorMatrix>
        </filter>
        <rect id="path-5" x="14" y="0" width="40" height="48" rx="4"></rect>
        <filter x="-15.0%" y="-12.5%" width="130.0%" height="125.0%" filterUnits="objectBoundingBox" id="filter-6">
            <feGaussianBlur stdDeviation="2" in="SourceGraphic"></feGaussianBlur>
        </filter>
        <filter x="-30.0%" y="-25.0%" width="160.0%" height="150.0%" filterUnits="objectBoundingBox" id="filter-7">
            <feMorphology radius="6" operator="erode" in="SourceAlpha" result="shadowSpreadInner1"></feMorphology>
            <feGaussianBlur stdDeviation="2" in="shadowSpreadInner1" result="shadowBlurInner1"></feGaussianBlur>
            <feOffset dx="0" dy="2" in="shadowBlurInner1" result="shadowOffsetInner1"></feOffset>
            <feComposite in="shadowOffsetInner1" in2="SourceAlpha" operator="arithmetic" k2="-1" k3="1" result="shadowInnerInner1"></feComposite>
            <feColorMatrix values="0 0 0 0 1   0 0 0 0 1   0 0 0 0 1  0 0 0 0.5 0" type="matrix" in="shadowInnerInner1"></feColorMatrix>
        </filter>
        <linearGradient x1="50%" y1="0%" x2="50%" y2="100%" id="linearGradient-8">
            <stop stop-color="#FF000E" offset="0%"></stop>
            <stop stop-color="#FF5400" offset="100%"></stop>
        </linearGradient>
    </defs>
    <g id="解决方案" stroke="none" stroke-width="1" fill="none" fill-rule="evenodd">
        <g id="03解决方案-电厂" transform="translate(-1405.000000, -1345.000000)">
            <g id="4安防" transform="translate(1405.000000, 1351.000000)">
                <rect id="矩形备份" fill="url(#linearGradient-1)" x="0" y="15" width="33" height="33" rx="4"></rect>
                <g id="矩形" opacity="0.691890898">
                    <use fill="url(#linearGradient-2)" fill-rule="evenodd" xlink:href="#path-3"></use>
                    <use fill="black" fill-opacity="1" filter="url(#filter-4)" xlink:href="#path-3"></use>
                </g>
                <g id="矩形" opacity="0.901555379" filter="url(#filter-6)">
                    <use fill="url(#linearGradient-2)" fill-rule="evenodd" xlink:href="#path-5"></use>
                    <use fill="black" fill-opacity="1" filter="url(#filter-7)" xlink:href="#path-5"></use>
                </g>
                <path d="M47,15.1930435 C47,15.1930435 47,28.4428696 47,28.4428696 C47,29.2375652 46.7996,30.0277391 46.4,30.8133913 C45.9992,31.6013043 45.476,32.362087 44.828,33.1013913 C44.18,33.8395652 43.4396,34.5393043 42.608,35.1983478 C41.7752,35.8585217 40.9316,36.4463478 40.076,36.9618261 C39.2192,37.4784348 38.3876,37.908 37.58,38.2493913 C36.7724,38.5907826 36.0644,38.8247826 35.456,38.9525217 C35.456,38.9525217 35.168,39 35.168,39 C35.168,39 34.904,38.9525217 34.904,38.9525217 C34.28,38.8247826 33.5564,38.5907826 32.732,38.2493913 C31.9076,37.908 31.052,37.4784348 30.164,36.9618261 C29.276,36.4463478 28.4048,35.8585217 27.548,35.1983478 C26.6924,34.5393043 25.928,33.8395652 25.256,33.1013913 C24.584,32.362087 24.0404,31.6013043 23.6252,30.8133913 C23.2076,30.0277391 23,29.2375652 23,28.4428696 C23,28.4428696 23,15.1930435 23,15.1930435 C23,15.1930435 23.984,15.0494783 23.984,15.0494783 C23.984,15.0494783 35.024,13 35.024,13 C35.024,13 46.28,15.0494783 46.28,15.0494783 C46.28,15.0494783 47,15.1930435 47,15.1930435 C47,15.1930435 47,15.1930435 47,15.1930435 Z M34.4782609,15.0261067 C34.4782609,15.0261067 34.3480704,15 34.3480704,15 C34.3480704,15 25.0869565,16.6061294 25.0869565,16.6061294 C25.0869565,16.6061294 25.0869565,25 25.0869565,25 C25.0869565,25 34.4782609,25 34.4782609,25 C34.4782609,25 34.4782609,15.0261067 34.4782609,15.0261067 C34.4782609,15.0261067 34.4782609,15.0261067 34.4782609,15.0261067 Z M44.9130435,25 C44.9130435,25 35.5217391,25 35.5217391,25 C35.5217391,25 35.5217391,37 35.5217391,37 C36.125727,36.8586358 36.7827998,36.6431693 37.4929575,36.3524606 C38.2019355,36.0617519 38.9026559,35.7186016 39.5939389,35.3218697 C40.2864016,34.9251378 40.9517321,34.4850846 41.5922896,34.00057 C42.2328471,33.5160555 42.7979061,32.9950599 43.2921853,32.4398632 C43.7852848,31.8858066 44.1781129,31.3089493 44.4718492,30.7092913 C44.7667652,30.1107733 44.9130435,29.5019951 44.9130435,28.8852366 C44.9130435,28.8852366 44.9130435,25 44.9130435,25 C44.9130435,25 44.9130435,25 44.9130435,25 Z" id="形状" fill="url(#linearGradient-8)"></path>
            </g>
        </g>
    </g>
</svg>