<?xml version="1.0" encoding="UTF-8"?>
<svg width="16px" height="16px" viewBox="0 0 16 16" version="1.1" xmlns="http://www.w3.org/2000/svg" xmlns:xlink="http://www.w3.org/1999/xlink">
    <title>24gf-telephone2</title>
    <g id="20230707修改" stroke="none" stroke-width="1" fill="none" fill-rule="evenodd">
        <g id="联系我们" transform="translate(-363.000000, -1294.000000)" fill-rule="nonzero">
            <g id="24gf-telephone2" transform="translate(363.000000, 1294.000000)">
                <rect id="矩形" fill="#000000" opacity="0" x="0" y="0" width="16" height="16"></rect>
                <path d="M14.7597969,11.4326094 C14.6832268,11.0514331 14.512924,10.6953299 14.2642656,10.3964531 L11.8557344,7.50625 C11.412975,6.97355052 10.7559131,6.66579335 10.0632344,6.66667 L5.93676562,6.66667 C5.24408686,6.66579335 4.58702505,6.97355052 4.14426562,7.50625 L1.73573438,10.3964531 C1.48707599,10.6953299 1.31677318,11.0514331 1.24020312,11.4326094 L0.912390625,13.071875 C0.834058165,13.463566 0.935463486,13.8697429 1.18870669,14.1786534 C1.4419499,14.4875639 1.82035001,14.66667 2.21979688,14.66667 L13.7802031,14.66667 C14.17965,14.66667 14.5580501,14.4875639 14.8112933,14.1786534 C15.0645365,13.8697429 15.1659418,13.463566 15.0876094,13.071875 L14.7597969,11.4326094 Z M8,11.3333281 C6.52729688,11.3333281 5.33332812,10.5871875 5.33332812,9.66667187 C5.33332812,8.74615625 6.52729688,8 8,8 C9.47270312,8 10.6666719,8.74614063 10.6666719,9.66667188 C10.6666719,10.5872031 9.47270313,11.3333281 8,11.3333281 Z M15.3333281,5 L15.3333281,5.83332813 C15.3328201,6.29335447 14.9600263,6.6661552 14.5,6.66667188 L11.5,6.66667188 C11.0399737,6.6661552 10.6671799,6.29335447 10.6666719,5.83332813 L10.6666719,5 C10.6666719,4.79292188 10.40625,4.5484375 9.9859375,4.36176563 C9.46104687,4.1284375 8.75573438,4 8,4 C7.24426563,4 6.53895313,4.1284375 6.0140625,4.36176563 C5.59375,4.5484375 5.33332813,4.79292188 5.33332813,5 L5.33332813,5.83332813 C5.33282008,6.29335447 4.96002633,6.6661552 4.5,6.66667188 L1.5,6.66667188 C1.03997367,6.6661552 0.667179921,6.29335447 0.666671875,5.83332813 L0.666671875,5 C0.666671875,3.97395313 1.46229688,3.03 2.90698438,2.34198438 C4.27292188,1.6915625 6.08167188,1.33332813 8,1.33332813 C9.91832813,1.33332813 11.7270781,1.6915625 13.0930156,2.34198438 C14.5377031,3.03 15.3333281,3.97395313 15.3333281,5 Z" id="形状" fill="#FF0000"></path>
            </g>
        </g>
    </g>
</svg>