<?xml version="1.0" encoding="UTF-8"?>
<svg width="16px" height="16px" viewBox="0 0 16 16" version="1.1" xmlns="http://www.w3.org/2000/svg" xmlns:xlink="http://www.w3.org/1999/xlink">
    <title>地址</title>
    <g id="20230707修改" stroke="none" stroke-width="1" fill="none" fill-rule="evenodd">
        <g id="联系我们" transform="translate(-363.000000, -1251.000000)" fill-rule="nonzero">
            <g id="地址" transform="translate(363.000000, 1251.000000)">
                <rect id="矩形" fill="#000000" opacity="0" x="0" y="0" width="16" height="16"></rect>
                <g transform="translate(2.000000, 0.000000)" fill="#FF0000">
                    <path d="M5.99905764,0 C2.68572326,0 0,2.28128272 0,5.0930569 C0,8.87090176 3.68462384,12.3945175 5.27909534,13.7419319 C5.68054029,14.0825989 6.3288833,14.0859886 6.73786713,13.752101 C8.34176221,12.4436685 12,9.02852382 12,5.0930569 C11.9981153,2.28128272 9.31239202,0 5.99905764,0 Z M5.99905764,6.79808692 C4.92665305,6.79808692 4.0559133,6.01506121 4.0559133,5.05068537 C4.0559133,4.08630954 4.92665305,3.30328382 5.99905764,3.30328382 C7.07146223,3.30328382 7.94220198,4.08630954 7.94220198,5.05068537 C7.94220198,6.01506121 7.07146223,6.79808692 5.99905764,6.79808692 Z" id="形状"></path>
                    <path d="M2,14.5 C2,14.6786328 2.76239566,14.8436963 4,14.9330127 C5.2376043,15.0223291 6.7623957,15.0223291 8,14.9330127 C9.23760434,14.8436963 10,14.6786328 10,14.5 C10,14.2238576 8.209139,14 6,14 C3.790861,14 2,14.2238576 2,14.5 Z" id="路径"></path>
                </g>
            </g>
        </g>
    </g>
</svg>